<mxfile host="app.diagrams.net" modified="2023-11-13T11:12:09.056Z" agent="Mozilla/5.0 (Windows NT 10.0; Win64; x64; rv:109.0) Gecko/20100101 Firefox/119.0" etag="RHP_HbOhJIBRMsUrildh" version="22.1.0" type="device">
  <diagram id="IKdcczgC__YtXfX8UIwX" name="Page-1">
    <mxGraphModel dx="1461" dy="775" grid="1" gridSize="10" guides="1" tooltips="1" connect="1" arrows="1" fold="1" page="1" pageScale="1" pageWidth="827" pageHeight="1169" math="0" shadow="0">
      <root>
        <mxCell id="0" />
        <mxCell id="1" parent="0" />
        <mxCell id="m_R6_4stdK32f-bWhgOH-3" value="&lt;b&gt;Fach&lt;/b&gt;" style="html=1;fontStyle=0" parent="1" vertex="1">
          <mxGeometry x="40" y="140" width="120" height="40" as="geometry" />
        </mxCell>
        <mxCell id="m_R6_4stdK32f-bWhgOH-19" value="unterrichtet" style="endArrow=none;html=1;endFill=0;entryX=0.5;entryY=0;entryDx=0;entryDy=0;exitX=0.5;exitY=1;exitDx=0;exitDy=0;verticalAlign=middle;spacingBottom=6;labelPosition=left;verticalLabelPosition=middle;align=right;spacingRight=3;labelBackgroundColor=none;" parent="1" source="m_R6_4stdK32f-bWhgOH-1" target="m_R6_4stdK32f-bWhgOH-3" edge="1">
          <mxGeometry relative="1" as="geometry">
            <mxPoint x="90" y="70" as="sourcePoint" />
            <mxPoint x="120" y="90" as="targetPoint" />
            <mxPoint as="offset" />
          </mxGeometry>
        </mxCell>
        <mxCell id="m_R6_4stdK32f-bWhgOH-20" value="1..&lt;font style=&quot;font-size: 16px&quot; size=&quot;1&quot;&gt;&lt;sub style=&quot;font-size: 15px&quot;&gt;*&lt;/sub&gt;&lt;/font&gt;" style="resizable=0;html=1;align=left;verticalAlign=top;labelBackgroundColor=none;fontSize=10;spacingTop=-10;spacingLeft=0;" parent="m_R6_4stdK32f-bWhgOH-19" connectable="0" vertex="1">
          <mxGeometry x="-1" relative="1" as="geometry">
            <mxPoint x="2" as="offset" />
          </mxGeometry>
        </mxCell>
        <mxCell id="m_R6_4stdK32f-bWhgOH-21" value="2" style="resizable=0;html=1;align=right;verticalAlign=bottom;labelBackgroundColor=none;fontSize=10;spacingLeft=0;spacing=2;spacingBottom=0;spacingRight=3;spacingTop=0;" parent="m_R6_4stdK32f-bWhgOH-19" connectable="0" vertex="1">
          <mxGeometry x="1" relative="1" as="geometry">
            <mxPoint x="14" as="offset" />
          </mxGeometry>
        </mxCell>
        <mxCell id="m_R6_4stdK32f-bWhgOH-22" value="nimmt teil" style="endArrow=none;html=1;endFill=0;exitX=0.5;exitY=0;exitDx=0;exitDy=0;verticalAlign=middle;spacingTop=10;labelPosition=left;verticalLabelPosition=middle;align=right;fontSize=11;spacingRight=3;labelBackgroundColor=none;" parent="1" source="m_R6_4stdK32f-bWhgOH-6" target="m_R6_4stdK32f-bWhgOH-3" edge="1">
          <mxGeometry relative="1" as="geometry">
            <mxPoint x="210" y="120" as="sourcePoint" />
            <mxPoint x="210" y="180" as="targetPoint" />
            <mxPoint as="offset" />
          </mxGeometry>
        </mxCell>
        <mxCell id="m_R6_4stdK32f-bWhgOH-23" value="&lt;font style=&quot;font-size: 15px&quot;&gt;*&lt;/font&gt;" style="resizable=0;html=1;align=left;verticalAlign=middle;labelBackgroundColor=none;fontSize=16;spacingTop=-7;spacingLeft=0;" parent="m_R6_4stdK32f-bWhgOH-22" connectable="0" vertex="1">
          <mxGeometry x="-1" relative="1" as="geometry">
            <mxPoint x="2" as="offset" />
          </mxGeometry>
        </mxCell>
        <mxCell id="m_R6_4stdK32f-bWhgOH-24" value="1..10" style="resizable=0;html=1;align=right;verticalAlign=top;labelBackgroundColor=none;fontSize=10;spacingLeft=0;spacing=2;spacingBottom=0;spacingRight=2;spacingTop=-4;" parent="m_R6_4stdK32f-bWhgOH-22" connectable="0" vertex="1">
          <mxGeometry x="1" relative="1" as="geometry">
            <mxPoint x="29" as="offset" />
          </mxGeometry>
        </mxCell>
        <mxCell id="m_R6_4stdK32f-bWhgOH-6" value="&lt;b&gt;SchÃ¼ler&lt;/b&gt;" style="html=1;fontStyle=0" parent="1" vertex="1">
          <mxGeometry x="40" y="240" width="120" height="40" as="geometry" />
        </mxCell>
        <mxCell id="m_R6_4stdK32f-bWhgOH-1" value="&lt;b&gt;Lehrer&lt;/b&gt;" style="html=1;fontStyle=0" parent="1" vertex="1">
          <mxGeometry x="40" y="40" width="120" height="40" as="geometry" />
        </mxCell>
        <mxCell id="T6Ai0_ayIKamRRYhBH8k-1" value="" style="triangle;whiteSpace=wrap;html=1;dashed=0;direction=north;fillColor=#000000;aspect=fixed;rotation=-180;" parent="1" vertex="1">
          <mxGeometry x="91" y="116" width="4.5" height="9" as="geometry" />
        </mxCell>
        <mxCell id="T6Ai0_ayIKamRRYhBH8k-2" value="" style="triangle;whiteSpace=wrap;html=1;dashed=0;direction=north;fillColor=#000000;aspect=fixed;rotation=0;" parent="1" vertex="1">
          <mxGeometry x="91" y="197" width="4.5" height="9" as="geometry" />
        </mxCell>
      </root>
    </mxGraphModel>
  </diagram>
</mxfile>
